<svg width="20" height="21" viewBox="0 0 20 21" fill="none" xmlns="http://www.w3.org/2000/svg">
<g id="Home Icom">
<path id="Vector" d="M1.66666 10.67C1.66666 8.76293 1.66666 7.80942 2.09933 7.01897C2.532 6.22853 3.32245 5.73795 4.90336 4.75679L6.57002 3.72241C8.24115 2.68526 9.07672 2.16669 10 2.16669C10.9233 2.16669 11.7588 2.68526 13.43 3.72241L15.0966 4.75679C16.6775 5.73795 17.468 6.22853 17.9007 7.01897C18.3333 7.80942 18.3333 8.76293 18.3333 10.67V11.9375C18.3333 15.1882 18.3333 16.8136 17.357 17.8235C16.3807 18.8334 14.8094 18.8334 11.6667 18.8334H8.33333C5.19063 18.8334 3.61929 18.8334 2.64297 17.8235C1.66666 16.8136 1.66666 15.1882 1.66666 11.9375V10.67Z" stroke="white" stroke-width="1.5"/>
<path id="Vector_2" d="M10 13L10 15.5" stroke="white" stroke-width="1.5" stroke-linecap="round"/>
</g>
</svg>
